<svg xmlns="http://www.w3.org/2000/svg" style="display: none">
    <!-- ÍCONES GERAIS -->

    <!-- Check Icon: Usado para indicar seleção, confirmação ou estado ativo -->
    <symbol id="check2" viewBox="0 0 16 16">
        <path d="M13.854 3.646a.5.5 0 0 1 0 .708l-7 7a.5.5 0 0 1-.708 0l-3.5-3.5a.5.5 0 1 1 .708-.708L6.5 10.293l6.646-6.647a.5.5 0 0 1 .708 0z" />
    </symbol>

    <!-- Circle Half Icon: Usado para representar alternância de temas ou modos -->
    <symbol id="circle-half" viewBox="0 0 16 16">
        <path d="M8 15A7 7 0 1 0 8 1v14zm0 1A8 8 0 1 1 8 0a8 8 0 0 1 0 16z" fill="currentColor" />
    </symbol>

    <!-- Moon and Stars Icon: Representa o tema escuro ou noite -->
    <symbol id="moon-stars-fill" viewBox="0 0 16 16">
        <path d="M6 .278a.768.768 0 0 1 .08.858 7.208 7.208 0 0 0-.878 3.46c0 4.021 3.278 7.277 7.318 7.277.527 0 1.04-.055 1.533-.16a.787.787 0 0 1 .81.316.733.733 0 0 1-.031.893A8.349 8.349 0 0 1 8.344 16C3.734 16 0 12.286 0 7.71 0 4.266 2.114 1.312 5.124.06A.752.752 0 0 1 6 .278z" fill="currentColor" />
        <path d="M10.794 3.148a.217.217 0 0 1 .412 0l.387 1.162c.173.518.579.924 1.097 1.097l1.162.387a.217.217 0 0 1 0 .412l-1.162.387a1.734 1.734 0 0 0-1.097 1.097l-.387 1.162a.217.217 0 0 1-.412 0l-.387-1.162A1.734 1.734 0 0 0 9.31 6.593l-1.162-.387a.217.217 0 0 1 0-.412l1.162-.387a1.734 1.734 0 0 0 1.097-1.097l.387-1.162z" fill="currentColor" />
    </symbol>

    <!-- Sun Icon: Representa o tema claro ou dia -->
    <symbol id="sun-fill" viewBox="0 0 16 16">
        <path d="M8 12a4 4 0 1 0 0-8 4 4 0 0 0 0 8zM8 0a.5.5 0 0 1 .5.5v2a.5.5 0 0 1-1 0v-2A.5.5 0 0 1 8 0zm0 13a.5.5 0 0 1 .5.5v2a.5.5 0 0 1-1 0v-2A.5.5 0 0 1 8 13zm8-5a.5.5 0 0 1-.5.5h-2a.5.5 0 0 1 0-1h2a.5.5 0 0 1 .5.5zM3 8a.5.5 0 0 1-.5.5h-2a.5.5 0 0 1 0-1h2A.5.5 0 0 1 3 8zm10.657-5.657a.5.5 0 0 1 0 .707l-1.414 1.415a.5.5 0 1 1-.707-.708l1.414-1.414a.5.5 0 0 1 .707 0z" />
    </symbol>

    <!-- ÍCONES DE REDES SOCIAIS -->

    <!-- Facebook Icon -->
    <symbol id="facebook" viewBox="0 0 16 16">
        <path d="M16 8.049c0-4.446-3.582-8.05-8-8.05C3.58 0-.002 3.603-.002 8.05c0 4.017 2.926 7.347 6.75 7.951v-5.625h-2.03V8.05H6.75V6.275c0-2.017 1.195-3.131 3.022-3.131.876 0 1.791.157 1.791.157v1.98h-1.009c-.993 0-1.303.621-1.303 1.258v1.51h2.218l-.354 2.326H9.25V16c3.824-.604 6.75-3.934 6.75-7.951" />
    </symbol>

    <!-- Instagram Icon -->
    <symbol id="instagram" viewBox="0 0 16 16">
        <path d="M8 0C5.829 0 ... (caminho completo do ícone)" />
    </symbol>

    <!-- TikTok Icon -->
    <symbol id="tiktok" viewBox="0 0 16 16">
        <path d="M9 0h1.98c.144.715... (caminho completo do ícone)" />
    </symbol>

    <!-- WhatsApp Icon -->
    <symbol id="whatsapp" viewBox="0 0 16 16">
        <path d="M13.601 2.326A7.85 7.85 0 0 0 ... (caminho completo do ícone)" />
    </symbol>

    <!-- ÍCONES DE FUNÇÃO -->

    <!-- Question Icon: Ajuda ou dúvidas -->
    <symbol id="question-lg" viewBox="0 0 16 16">
        <path d="M4.475 5.458c-.284 0-.514-.237-.47-.517C4.28 3.24 5.576 2 7.825 2c2.25 0 3.767 1.36 3.767 3.215 0 1.344-.665 2.288-1.79 2.973-1.1.659-1.414 1.118-1.414 2.01v.03a.5.5 0 0 1-.5.5h-.77a.5.5 0 0 1-.5-.495l-.003-.2c-.043-1.221.477-2.001 1.645-2.712 1.03-.632 1.397-1.135 1.397-2.028 0-.979-.758-1.698-1.926-1.698-1.009 0-1.71.529-1.938 1.402-.066.254-.278.461-.54.461h-.777ZM7.496 14c.622 0 1.095-.474 1.095-1.09 0-.618-.473-1.092-1.095-1.092-.606 0-1.087.474-1.087 1.091S6.89 14 7.496 14" />
    </symbol>
</svg>
