<!--
    SPRITE SVG
    Este arquivo consolida todos os ícones SVG utilizados no header do site.
    Usando <symbol>, podemos reutilizar os ícones em múltiplos locais sem duplicação.

    Como Utilizar:
    - Inclua este arquivo no seu template base, preferencialmente no início do <body>.
    - Utilize <use href="#id-do-icon"> para referenciar cada ícone onde necessário.
-->

<svg xmlns="http://www.w3.org/2000/svg" style="display: none;">

    <!-- ================================
         Estilos e Animações Internas
         ================================ -->
    <style>
        /*
           Keyframes das animações "signal" Wi-Fi:
           Essas animações alteram gradualmente o 'fill' (cor de preenchimento)
           dos caminhos SVG representando o sinal Wi-Fi do logo.
        */

        @keyframes fillAnimation2 {
            0%, 50% {
                fill: #d3d3d3;
            }
            75%, 100% {
                fill: #ff9800;
            }
        }

        @keyframes fillAnimation3 {
            0%, 75% {
                fill: #d3d3d3;
            }
            100% {
                fill: #ff9800;
            }
        }

        @keyframes fillAnimation4 {
            0%, 90% {
                fill: #d3d3d3;
            }
            100% {
                fill: #ff9800;
            }
        }

        /* Classes aplicadas para sinais Wi-Fi animados */
        .wifi-signal-2 {
            animation: fillAnimation2 1s infinite ease-in-out;
        }

        .wifi-signal-3 {
            animation: fillAnimation3 1s infinite ease-in-out;
        }

        .wifi-signal-4 {
            animation: fillAnimation4 1s infinite ease-in-out;
        }

        /* Classes para o texto do logo */
        .logo {
            fill: var(--bs-light, #ffffff);
        }

        .logo-slogan {
            fill: var(--bs-light, #ffffff);
        }

        /* Simulando as classes do Bootstrap para peso da fonte */
        .fw-bold {
            font-weight: 700;
        }

        .fw-semibold {
            font-weight: 600;
        }
    </style>

    <!-- ================================
         Ícones Diversos
         ================================ -->

    <!-- Ícone: Check (Marca de seleção) -->
    <symbol id="check2" viewBox="0 0 16 16" aria-label="Ícone de seleção">
        <path d="M13.854 3.646a.5.5 0 0 1 0 .708l-7 7a.5.5 0 0 1-.708 0l-3.5-3.5a.5.5 0 1 1 .708-.708L6.5 10.293l6.646-6.647a.5.5 0 0 1 .708 0z"/>
    </symbol>

    <!-- Ícone: Meia-circunferência -->
    <symbol id="circle-half" viewBox="0 0 16 16" aria-label="Ícone meia-lua">
        <path d="M8 15A7 7 0 1 0 8 1v14zm0 1A8 8 0 1 1 8 0a8 8 0 0 1 0 16z" fill="currentColor"/>
    </symbol>

    <!-- Ícone: Lua com Estrelas -->
    <symbol id="moon-stars-fill" viewBox="0 0 16 16" aria-label="Ícone lua e estrelas">
        <path d="M6 .278a.768.768 0 0 1 .08.858 7.208 7.208 0 0 0-.878 3.46c0 4.021 3.278 7.277 7.318 7.277.527 0 1.04-.055 1.533-.16a.787.787 0 0 1 .81.316.733.733 0 0 1-.031.893A8.349 8.349 0 0 1 8.344 16C3.734 16 0 12.286 0 7.71 0 4.266 2.114 1.312 5.124.06A.752.752 0 0 1 6 .278z" fill="currentColor"/>
        <path d="M10.794 3.148a.217.217 0 0 1 .412 0l.387 1.162c.173.518.579.924 1.097 1.097l1.162.387a.217.217 0 0 1 0 .412l-1.162.387a1.734 1.734 0 0 0-1.097 1.097l-.387 1.162a.217.217 0 0 1-.412 0l-.387-1.162A1.734 1.734 0 0 0 9.31 6.593l-1.162-.387a.217.217 0 0 1 0-.412l1.162-.387a1.734 1.734 0 0 0 1.097-1.097l.387-1.162zM13.863.099a.145.145 0 0 1 .274 0l.258.774c.115.346.386.617.732.732l.774.258a.145.145 0 0 1 0 .274l-.774.258a1.156 1.156 0 0 0-.732.732l-.258.774a.145.145 0 0 1-.274 0l-.258-.774a1.156 1.156 0 0 0-.732-.732l-.774-.258a.145.145 0 0 1 0-.274l.774-.258c.346-.115.617-.386.732-.732L13.863.1z" fill="currentColor"/>
    </symbol>

    <!-- Ícone: Sol -->
    <symbol id="sun-fill" viewBox="0 0 16 16" aria-label="Ícone de sol">
        <path d="M8 12a4 4 0 1 0 0-8 4 4 0 0 0 0 8zM8 0a.5.5 0 0 1 .5.5v2a.5.5 0 0 1-1 0v-2A.5.5 0 0 1 8 0zm0 13a.5.5 0 0 1 .5.5v2a.5.5 0 0 1-1 0v-2A.5.5 0 0 1 8 13zm8-5a.5.5 0 0 1-.5.5h-2a.5.5 0 0 1 0-1h2a.5.5 0 0 1 .5.5zM3 8a.5.5 0 0 1-.5.5h-2a.5.5 0 0 1 0-1h2A.5.5 0 0 1 3 8zm10.657-5.657a.5.5 0 0 1 0 .707l-1.414 1.415a.5.5 0 1 1-.707-.708l1.414-1.414a.5.5 0 0 1 .707 0zm-9.193 9.193a.5.5 0 0 1 0 .707L3.05 13.657a.5.5 0 0 1-.707-.707l1.414-1.414a.5.5 0 0 1 .707 0zm9.193 2.121a.5.5 0 0 1-.707 0l-1.414-1.414a.5.5 0 0 1 .707-.707l1.414 1.414a.5.5 0 0 1 0 .707zM4.464 4.465a.5.5 0 0 1-.707 0L2.343 3.05a.5.5 0 1 1 .707-.707l1.414 1.414a.5.5 0 0 1 0 .708z" fill="currentColor"/>
    </symbol>

    <!-- ================================
         Logo da Rede Virtual Net
         ================================ -->
    <symbol id="rede-virtual-net" viewBox="50 45 450 100" preserveAspectRatio="xMidYMid meet"
            aria-label="Rede Virtual Net">
        <g>
            <!-- Sinais Wi-Fi Animados -->
            <path class="wifi-signal-4" d="M63 115c1-23 21-38 39-38v-5c-28 0-45 22-45 43h6"/>
            <path class="wifi-signal-3" d="M75 115c0-15 12-27 27-27v-7c-16 1-33 15-33 34h6"/>
            <path class="wifi-signal-2" d="M86 115a16 16 0 0 1 16-16v-6c-12 0-22 10-22 22h6"/>
            <!-- Base do Sinal Wi-Fi -->
            <path d="M98 106c2 0 4 2 4 5 0 2-2 4-4 4-3 0-5-2-5-4 0-3 2-5 5-5" fill="#ff9800"/>

            <!-- Texto do Logo -->
            <text x="105" y="100" class="fw-bold logo" font-size="40">REDE VIRTUAL</text>
            <text x="385" y="100" class="fw-bold" font-size="40" fill="#ef6c00">NET</text>
            <text x="107.5" y="115" class="fw-semibold logo-slogan" font-size="16">
                A INTERNET MAIS RÁPIDA DO MERCADO
            </text>
        </g>
    </symbol>

    <!-- ================================
         Ícones de Redes Sociais
         ================================ -->

    <!-- Ícone: Facebook -->
    <symbol id="facebook" viewBox="0 0 320 512" aria-label="Ícone Facebook">
        <path d="M80 299.3V512H196V299.3h86.5l18-97.8H196V166.9c0-51.7 20.3-71.5 72.7-71.5c16.3 0 29.4 .4 37 1.2V7.9C291.4 4 256.4 0 236.2 0C129.3 0 80 50.5 80 159.4v42.1H14v97.8H80z"/>
    </symbol>

    <!-- Ícone: TikTok -->
    <symbol id="tiktok" viewBox="0 0 448 512" aria-label="Ícone TikTok">
        <path d="M448 209.9a210.1 210.1 0 0 1 -122.8-39.3V349.4A162.6 162.6 0 1 1 185 188.3V278.2a74.6 74.6 0 1 0 52.2 71.2V0l88 0a121.2 121.2 0 0 0 1.9 22.2h0A122.2 122.2 0 0 0 381 102.4a121.4 121.4 0 0 0 67 20.1z"/>
    </symbol>

    <!-- Ícone: WhatsApp -->
    <symbol id="whatsapp" viewBox="0 0 448 512" aria-label="Ícone WhatsApp">
        <path d="M380.9 97.1C339 55.1 283.2 32 223.9 32c-122.4 0-222 99.6-222 222 0 39.1 10.2 77.3 29.6 111L0 480l117.7-30.9c32.4 17.7 68.9 27 106.1 27h.1c122.3 0 224.1-99.6 224.1-222 0-59.3-25.2-115-67.1-157zm-157 341.6c-33.2 0-65.7-8.9-94-25.7l-6.7-4-69.8 18.3L72 359.2l-4.4-7c-18.5-29.4-28.2-63.3-28.2-98.2 0-101.7 82.8-184.5 184.6-184.5 49.3 0 95.6 19.2 130.4 54.1 34.8 34.9 56.2 81.2 56.1 130.5 0 101.8-84.9 184.6-186.6 184.6zm101.2-138.2c-5.5-2.8-32.8-16.2-37.9-18-5.1-1.9-8.8-2.8-12.5-2.8-3.7 5.6-14.3 18-17.6 21.8-3.2 3.7-6.5 4.2-12 1.4-32.6-16.3-54-29.1-75.5-66-5.7-9.8 5.7-9.1 16.3-30.3 1.8-3.7 .9-6.9-.5-9.7-1.4-2.8-12.5-30.1-17.1-41.2-4.5-10.8-9.1-9.3-12.5-9.5-3.2-.2-6.9-.2-10.6-.2-3.7 0-9.7 1.4-14.8 6.9-5.1 5.6-19.4 19-19.4 46.3 0 27.3 19.9 53.7 22.6 57.4 2.8 3.7 39.1 59.7 94.8 83.8 35.2 15.2 49 16.5 66.6 13.9 10.7-1.6 32.8-13.4 37.4-26.4 4.6-13 4.6-24.1 3.2-26.4-1.3-2.5-5-3.9-10.5-6.6z"/>
    </symbol>

    <!-- Ícone: Instagram -->
    <symbol id="instagram" viewBox="0 0 448 512" aria-label="Ícone Instagram">
        <path d="M224.1 141c-63.6 0-114.9 51.3-114.9 114.9s51.3 114.9 114.9 114.9S339 319.5 339 255.9 287.7 141 224.1 141zm0 189.6c-41.1 0-74.7-33.5-74.7-74.7s33.5-74.7 74.7-74.7 74.7 33.5 74.7 74.7-33.6 74.7-74.7 74.7zm146.4-194.3c0 14.9-12 26.8-26.8 26.8-14.9 0-26.8-12-26.8-26.8s12-26.8 26.8-26.8 26.8 12 26.8 26.8zm76.1 27.2c-1.7-35.9-9.9-67.7-36.2-93.9-26.2-26.2-58-34.4-93.9-36.2-37-2.1-147.9-2.1-184.9 0-35.8 1.7-67.6 9.9-93.9 36.1s-34.4 58-36.2 93.9c-2.1 37-2.1 147.9 0 184.9 1.7 35.9 9.9 67.7 36.2 93.9s58 34.4 93.9 36.2c37 2.1 147.9 2.1 184.9 0 35.9-1.7 67.7-9.9 93.9-36.2 26.2-26.2 34.4-58 36.2-93.9 2.1-37 2.1-147.8 0-184.8zM398.8 388c-7.8 19.6-22.9 34.7-42.6 42.6-29.5 11.7-99.5 9-132.1 9s-102.7 2.6-132.1-9c-19.6-7.8-34.7-22.9-42.6-42.6-11.7-29.5-9-99.5-9-132.1s-2.6-102.7 9-132.1c7.8-19.6 22.9-34.7 42.6-42.6 29.5-11.7 99.5-9 132.1-9s102.7-2.6 132.1 9c19.6 7.8 34.7 22.9 42.6 42.6 11.7 29.5 9 99.5 9 132.1s2.7 102.7-9 132.1z"/>
    </symbol>

</svg>
